<svg width="200" height="200" viewBox="0 0 200 200" fill="none" xmlns="http://www.w3.org/2000/svg">
<path d="M100.005 62.5C79.3398 62.5 62.503 79.3359 62.503 100C62.503 120.664 79.3398 137.5 100.005 137.5C120.67 137.5 137.507 120.664 137.507 100C137.507 79.3359 120.67 62.5 100.005 62.5ZM196.26 93.9453L159.266 75.4687L172.352 36.25C174.11 30.9375 169.071 25.8984 163.797 27.6953L124.576 40.7813L106.06 3.75C103.56 -1.25 96.45 -1.25 93.9499 3.75L75.4724 40.7422L36.2127 27.6563C30.8999 25.8984 25.8606 30.9375 27.6576 36.2109L40.7442 75.4297L3.75018 93.9453C-1.25006 96.4453 -1.25006 103.555 3.75018 106.055L40.7442 124.531L27.6576 163.789C25.8997 169.102 30.939 174.141 36.2127 172.344L75.4333 159.258L93.9108 196.25C96.4109 201.25 103.521 201.25 106.021 196.25L124.498 159.258L163.719 172.344C169.032 174.102 174.071 169.062 172.274 163.789L159.187 124.57L196.181 106.094C201.26 103.555 201.26 96.4453 196.26 93.9453ZM135.358 135.352C115.865 154.844 84.1447 154.844 64.6516 135.352C45.1584 115.859 45.1584 84.1406 64.6516 64.6484C84.1447 45.1562 115.865 45.1562 135.358 64.6484C154.851 84.1406 154.851 115.859 135.358 135.352Z" fill="#02E6F8"/>
</svg>
