<svg width="60" height="60" viewBox="0 0 60 60" fill="none" xmlns="http://www.w3.org/2000/svg">
<path d="M30.0015 18.75C23.8019 18.75 18.7509 23.8008 18.7509 30C18.7509 36.1992 23.8019 41.25 30.0015 41.25C36.201 41.25 41.252 36.1992 41.252 30C41.252 23.8008 36.201 18.75 30.0015 18.75ZM58.8779 28.1836L47.7797 22.6406L51.7056 10.875C52.233 9.28125 50.7212 7.76953 49.1391 8.30859L37.3729 12.2344L31.8179 1.125C31.0679 -0.375 28.935 -0.375 28.185 1.125L22.6417 12.2227L10.8638 8.29688C9.26998 7.76953 7.75819 9.28125 8.29728 10.8633L12.2232 22.6289L1.12505 28.1836C-0.375018 28.9336 -0.375018 31.0664 1.12505 31.8164L12.2232 37.3594L8.29728 49.1367C7.76991 50.7305 9.2817 52.2422 10.8638 51.7031L22.63 47.7773L28.1732 58.875C28.9233 60.375 31.0562 60.375 31.8062 58.875L37.3495 47.7773L49.1157 51.7031C50.7095 52.2305 52.2213 50.7187 51.6822 49.1367L47.7562 37.3711L58.8544 31.8281C60.3779 31.0664 60.3779 28.9336 58.8779 28.1836ZM40.6074 40.6055C34.7595 46.4531 25.2434 46.4531 19.3955 40.6055C13.5475 34.7578 13.5475 25.2422 19.3955 19.3945C25.2434 13.5469 34.7595 13.5469 40.6074 19.3945C46.4554 25.2422 46.4554 34.7578 40.6074 40.6055Z" fill="#02E6F8"/>
</svg>
